<?xml version="1.0" standalone="no"?>
<!DOCTYPE svg PUBLIC "-//W3C//DTD SVG 20010904//EN"
 "http://www.w3.org/TR/2001/REC-SVG-20010904/DTD/svg10.dtd">
<svg version="1.0" xmlns="http://www.w3.org/2000/svg"
 width="512.000000pt" height="512.000000pt" viewBox="0 0 512.000000 512.000000"
 preserveAspectRatio="xMidYMid meet">
<metadata>
Created by potrace 1.16, written by Peter Selinger 2001-2019
</metadata>
<g transform="translate(0.000000,512.000000) scale(0.100000,-0.100000)"
fill="#000000" stroke="none">
<path d="M2527 4035 c-319 -45 -552 -161 -728 -361 -144 -165 -201 -337 -223
-680 l-13 -208 -37 -29 c-30 -24 -36 -35 -36 -67 0 -36 -3 -39 -72 -81 -225
-132 -355 -236 -393 -314 -26 -51 -26 -147 -1 -193 89 -169 499 -397 946 -527
463 -134 931 -134 1252 1 204 85 414 278 510 468 39 77 68 194 68 274 l0 65
83 86 c150 157 190 238 152 312 -23 44 -34 115 -44 298 -15 257 -55 361 -172
447 -30 21 -95 77 -146 124 -196 183 -386 263 -623 264 l-125 1 -20 40 c-31
61 -88 88 -195 92 -47 1 -129 -4 -183 -12z m293 -46 c11 -6 5 -8 -18 -9 -56 0
-102 -25 -108 -60 -6 -28 -10 -30 -48 -30 -61 0 -230 -26 -317 -49 -74 -19
-192 -72 -234 -105 -11 -9 15 0 57 19 153 70 503 130 557 96 17 -11 18 -10
-121 -194 -164 -217 -231 -338 -267 -483 -30 -120 -34 -147 -23 -140 5 3 13
27 17 53 17 114 85 275 167 396 22 32 83 113 137 180 53 67 105 136 115 153
18 29 20 30 65 23 141 -23 352 -174 470 -339 25 -35 65 -101 89 -145 47 -88
47 -65 -1 30 -93 188 -247 338 -438 430 -38 18 -66 35 -62 38 25 16 231 -73
333 -143 153 -105 286 -307 324 -491 14 -70 26 -87 20 -27 -20 175 -116 364
-248 485 -69 63 -187 136 -278 173 -32 13 -56 25 -54 28 8 7 217 -18 279 -33
34 -9 114 -41 177 -72 110 -55 121 -63 263 -202 191 -187 223 -248 248 -481 5
-52 17 -137 25 -188 15 -91 15 -93 -7 -130 -37 -60 -136 -158 -246 -244 -57
-44 -103 -81 -103 -84 0 -7 64 22 107 49 74 47 164 128 209 189 52 71 59 65 9
-9 -66 -99 -215 -230 -370 -327 l-90 -57 -9 113 c-6 78 -4 183 5 338 8 124 13
259 11 300 -3 74 -39 256 -49 246 -3 -2 3 -51 12 -108 15 -87 16 -129 9 -273
-5 -93 -9 -273 -9 -399 0 -226 0 -229 -22 -243 l-23 -15 -1 68 c-1 38 -5 132
-9 209 -7 123 -7 114 -4 -71 l4 -211 -68 -31 c-91 -40 -239 -87 -347 -109
-113 -23 -493 -24 -619 -2 l-80 14 1 65 1 65 -7 -57 c-7 -65 -12 -72 -40 -63
-19 6 -21 13 -18 80 2 65 4 72 19 64 44 -23 186 13 333 85 156 77 159 81 200
267 49 226 53 203 -30 200 -38 -1 -101 3 -138 8 -67 9 -71 12 -125 70 -61 64
-135 105 -186 102 -35 -2 -97 -31 -146 -67 -33 -24 -40 -26 -110 -21 -42 4
-84 9 -93 13 -17 6 -18 -5 -12 -187 6 -176 9 -199 31 -244 29 -62 188 -225
204 -209 8 8 -10 39 -60 103 -39 51 -66 90 -60 86 5 -3 36 -41 69 -83 32 -43
66 -83 75 -91 12 -10 16 -32 16 -92 l0 -78 -52 18 c-220 77 -447 247 -523 392
-29 56 -29 57 -12 95 27 61 37 135 47 344 10 221 27 319 75 437 97 241 311
431 580 516 200 63 463 91 525 56z m44 -55 c26 -10 18 -31 -15 -43 -58 -20
-109 -11 -109 18 0 10 3 21 7 24 8 9 96 9 117 1z m-535 -1012 c20 -21 47 -53
61 -71 35 -46 94 -63 233 -69 103 -4 117 -7 117 -22 0 -46 -52 -268 -68 -290
-27 -36 -223 -132 -312 -153 -93 -22 -118 -21 -151 1 -35 23 -203 201 -197
208 3 3 59 -4 124 -15 252 -43 398 -61 407 -52 11 11 -30 31 -65 31 -11 0 -86
11 -167 24 -80 14 -180 28 -221 31 -41 4 -78 12 -82 18 -11 18 -26 103 -34
191 l-7 78 43 -7 c77 -13 144 2 202 46 29 21 57 38 63 36 5 -2 20 -19 32 -38
63 -100 104 -123 239 -135 71 -7 171 2 160 13 -3 4 -50 10 -104 14 -166 13
-191 25 -266 129 -28 39 -37 45 -73 48 -34 2 -47 -2 -75 -26 -18 -16 -43 -34
-55 -41 -27 -14 -173 -15 -173 -1 0 6 33 10 78 10 68 0 82 3 98 21 32 37 77
59 118 59 31 0 45 -7 75 -38z m-785 -374 c93 -209 368 -415 669 -502 203 -59
580 -79 802 -42 191 32 394 113 625 250 52 31 96 52 98 47 2 -6 -6 -44 -17
-86 -81 -293 -350 -529 -700 -615 -418 -103 -1025 -3 -1534 251 -255 128 -428
273 -427 358 1 69 78 162 205 248 70 47 235 143 247 143 5 0 19 -24 32 -52z"/>
<path d="M2350 3930 c-106 -28 -243 -98 -327 -169 -89 -76 -191 -202 -243
-302 -45 -87 -54 -121 -12 -44 98 177 268 344 428 420 41 20 137 52 212 71
173 44 170 42 87 43 -38 0 -104 -9 -145 -19z"/>
<path d="M3323 3728 c11 -7 52 -35 93 -61 126 -82 202 -199 245 -377 l13 -55
8 48 c20 113 -29 224 -148 336 -74 69 -138 107 -195 116 -30 5 -32 4 -16 -7z"/>
<path d="M3431 3580 c23 -31 91 -79 112 -80 10 0 -59 60 -103 90 l-35 24 26
-34z"/>
<path d="M2469 3553 c-13 -16 -12 -17 4 -4 9 7 17 15 17 17 0 8 -8 3 -21 -13z"/>
<path d="M2048 3519 c-46 -26 -42 -89 6 -89 48 0 76 69 37 90 -23 12 -22 12
-43 -1z"/>
<path d="M2878 3409 c-28 -16 -23 -65 8 -86 24 -15 29 -15 53 -2 35 20 40 62
9 83 -26 18 -46 20 -70 5z"/>
<path d="M3750 3354 c6 -14 15 -34 21 -45 5 -11 19 -52 30 -92 l20 -72 -5 54
c-3 29 -19 82 -35 117 -30 63 -50 88 -31 38z"/>
<path d="M3280 3365 c0 -5 5 -17 10 -25 5 -8 10 -10 10 -5 0 6 -5 17 -10 25
-5 8 -10 11 -10 5z"/>
<path d="M3331 3214 c0 -11 3 -14 6 -6 3 7 2 16 -1 19 -3 4 -6 -2 -5 -13z"/>
<path d="M2265 3160 c-4 -17 -5 -34 -2 -36 2 -3 7 10 11 27 8 42 0 50 -9 9z"/>
<path d="M3341 3174 c0 -11 3 -14 6 -6 3 7 2 16 -1 19 -3 4 -6 -2 -5 -13z"/>
<path d="M3357 3090 c3 -36 7 -67 9 -69 7 -8 2 73 -6 104 -5 19 -6 6 -3 -35z"/>
<path d="M2252 3090 c0 -14 2 -19 5 -12 2 6 2 18 0 25 -3 6 -5 1 -5 -13z"/>
<path d="M2241 3044 c0 -11 3 -14 6 -6 3 7 2 16 -1 19 -3 4 -6 -2 -5 -13z"/>
<path d="M3374 2845 c0 -93 2 -133 3 -88 2 45 2 122 0 170 -1 48 -3 12 -3 -82z"/>
<path d="M3678 2695 l-87 -45 12 -42 c7 -23 17 -43 23 -45 13 -4 88 54 109 85
22 30 47 92 38 91 -5 0 -47 -20 -95 -44z"/>
<path d="M1990 2753 c0 -6 11 -15 25 -21 23 -10 25 -17 25 -71 0 -41 4 -60 14
-64 9 -4 15 5 19 30 4 20 13 43 22 53 9 9 13 24 9 34 -6 15 -7 15 -19 -1 -13
-17 -14 -16 -24 10 -6 15 -17 27 -25 27 -8 0 -21 3 -30 6 -9 3 -16 2 -16 -3z"/>
<path d="M2119 2693 c-13 -35 -8 -105 9 -111 7 -2 12 6 12 20 0 41 11 67 26
61 9 -3 14 -21 14 -48 0 -52 18 -69 26 -26 9 42 22 39 26 -6 5 -59 32 -51 38
11 5 49 5 49 19 23 8 -15 18 -27 22 -27 5 0 6 -13 3 -30 -5 -23 -3 -30 9 -30
20 0 32 19 29 43 -2 9 2 17 7 17 6 0 11 -10 11 -23 0 -26 52 -62 76 -53 9 3
24 1 35 -5 30 -16 46 3 54 66 6 55 7 55 41 55 27 0 34 4 34 20 0 18 -7 20 -80
20 -64 0 -80 -3 -80 -15 0 -9 9 -15 23 -15 12 0 29 -5 37 -10 12 -8 11 -10 -6
-10 -15 0 -23 -9 -30 -37 -14 -58 -39 -50 -39 12 0 61 -15 70 -30 18 l-11 -38
-10 40 c-11 46 -38 59 -48 23 l-6 -23 -23 29 c-16 20 -29 27 -41 23 -10 -4
-19 -1 -22 8 -8 21 -24 19 -25 -2 0 -13 -3 -12 -10 6 -7 18 -15 22 -34 19 -17
-4 -25 -1 -25 8 0 24 -20 15 -31 -13z"/>
<path d="M1482 2348 c-81 -102 -48 -210 93 -310 17 -12 2 4 -31 35 -97 89
-118 160 -69 245 24 42 27 54 7 30z"/>
<path d="M1540 2328 c-44 -73 -37 -141 21 -199 21 -21 34 -39 27 -39 -31 0
118 -90 172 -104 14 -4 -3 7 -38 23 -67 32 -126 70 -119 77 3 3 22 -5 43 -16
22 -12 30 -15 20 -8 -42 28 -108 93 -122 119 -20 40 -18 108 6 147 11 17 17
32 15 32 -3 0 -14 -15 -25 -32z"/>
<path d="M1394 2310 c-58 -87 -38 -182 51 -257 49 -41 175 -116 182 -109 3 2
-10 12 -29 21 -57 29 -167 117 -193 154 -39 58 -42 106 -7 174 16 31 27 57 26
57 -2 0 -16 -18 -30 -40z"/>
<path d="M1339 2323 c-13 -16 -12 -17 4 -4 9 7 17 15 17 17 0 8 -8 3 -21 -13z"/>
<path d="M1645 2270 c7 -51 39 -98 99 -142 40 -30 165 -92 172 -86 1 2 -29 19
-68 38 -93 44 -171 120 -192 186 l-16 49 5 -45z"/>
<path d="M1310 2279 c-7 -11 -10 -23 -7 -25 2 -2 9 7 15 21 14 30 7 33 -8 4z"/>
<path d="M1293 2205 c0 -22 2 -30 4 -17 2 12 2 30 0 40 -3 9 -5 -1 -4 -23z"/>
<path d="M1600 2201 c0 -21 75 -86 138 -119 34 -18 62 -31 62 -28 0 3 -26 19
-57 36 -66 35 -89 53 -121 94 -12 16 -22 24 -22 17z"/>
<path d="M1318 2115 c6 -11 32 -40 58 -65 l48 -45 -54 60 c-29 33 -56 62 -58
65 -3 3 0 -4 6 -15z"/>
<path d="M1931 2036 c8 -8 180 -66 193 -65 6 0 -26 13 -72 29 -110 38 -128 44
-121 36z"/>
<path d="M3449 2003 c-13 -16 -12 -17 4 -4 16 13 21 21 13 21 -2 0 -10 -8 -17
-17z"/>
<path d="M1436 1999 c6 -11 134 -82 138 -78 2 2 -29 23 -70 45 -41 23 -71 38
-68 33z"/>
<path d="M3007 1964 c-16 -9 -72 -27 -125 -42 -87 -23 -116 -26 -276 -26 -99
-1 -162 -4 -140 -8 82 -14 264 -8 366 12 83 17 246 77 213 79 -5 0 -23 -7 -38
-15z"/>
<path d="M3364 1911 c-177 -171 -405 -242 -734 -228 l-125 5 115 -11 c84 -7
146 -7 230 1 227 23 369 84 509 219 47 45 84 82 81 82 -3 0 -37 -30 -76 -68z"/>
<path d="M2171 1956 c6 -7 166 -46 181 -45 7 0 -27 12 -77 25 -90 23 -112 28
-104 20z"/>
<path d="M2388 1903 c6 -2 18 -2 25 0 6 3 1 5 -13 5 -14 0 -19 -2 -12 -5z"/>
<path d="M2960 1890 c-8 -5 -10 -10 -5 -10 6 0 17 5 25 10 8 5 11 10 5 10 -5
0 -17 -5 -25 -10z"/>
<path d="M3020 1858 c-71 -33 -215 -67 -295 -69 -27 -1 -63 -5 -80 -9 -62 -17
153 2 232 21 77 17 213 71 213 83 0 7 7 10 -70 -26z"/>
<path d="M2888 1863 c7 -3 16 -2 19 1 4 3 -2 6 -13 5 -11 0 -14 -3 -6 -6z"/>
<path d="M2848 1853 c7 -3 16 -2 19 1 4 3 -2 6 -13 5 -11 0 -14 -3 -6 -6z"/>
<path d="M2793 1843 c9 -2 23 -2 30 0 6 3 -1 5 -18 5 -16 0 -22 -2 -12 -5z"/>
<path d="M2708 1833 c12 -2 30 -2 40 0 9 3 -1 5 -23 4 -22 0 -30 -2 -17 -4z"/>
<path d="M3095 1805 c-91 -38 -209 -62 -375 -75 l-115 -9 127 4 c69 3 162 12
205 21 82 17 229 69 238 85 4 5 5 8 3 8 -2 -1 -39 -16 -83 -34z"/>
<path d="M2508 1783 c12 -2 30 -2 40 0 9 3 -1 5 -23 4 -22 0 -30 -2 -17 -4z"/>
<path d="M2268 1723 c7 -3 16 -2 19 1 4 3 -2 6 -13 5 -11 0 -14 -3 -6 -6z"/>
<path d="M2318 1713 c6 -2 18 -2 25 0 6 3 1 5 -13 5 -14 0 -19 -2 -12 -5z"/>
<path d="M2383 1703 c9 -2 23 -2 30 0 6 3 -1 5 -18 5 -16 0 -22 -2 -12 -5z"/>
<path d="M2443 1693 c9 -2 25 -2 35 0 9 3 1 5 -18 5 -19 0 -27 -2 -17 -5z"/>
</g>
</svg>